<svg width="16" height="16" viewBox="0 0 16 16" fill="none" xmlns="http://www.w3.org/2000/svg">
<g clip-path="url(#clip0_22_2)">
<path d="M15.6002 14.8928L11.9882 11.28C13.1421 9.943 13.7326 8.21062 13.6355 6.4472C13.5384 4.68379 12.7612 3.02674 11.4674 1.82456C10.1736 0.622385 8.46408 -0.0312411 6.69829 0.00114877C4.93249 0.0335386 3.24806 0.74942 1.99924 1.99824C0.750427 3.24705 0.0345457 4.93148 0.00215585 6.69728C-0.030234 8.46307 0.623392 10.1726 1.82557 11.4664C3.02775 12.7602 4.68479 13.5374 6.44821 13.6345C8.21163 13.7316 9.944 13.1411 11.281 11.9872L14.893 15.5992L15.6002 14.8928ZM1.041 6.84239C1.041 5.69475 1.38132 4.57288 2.01893 3.61867C2.65654 2.66445 3.5628 1.92074 4.6231 1.4816C5.6834 1.04245 6.85011 0.927589 7.97568 1.15154C9.10126 1.37549 10.1351 1.9282 10.9466 2.73976C11.758 3.55132 12.3106 4.58528 12.5344 5.71089C12.7582 6.8365 12.6432 8.00319 12.2039 9.06343C11.7646 10.1237 11.0208 11.0298 10.0665 11.6673C9.11215 12.3048 7.99024 12.6449 6.8426 12.6448C5.30436 12.6429 3.82969 12.0309 2.74207 10.9432C1.65445 9.85538 1.04269 8.38062 1.041 6.84239Z" fill="black"/>
</g>
<defs>
<clipPath id="clip0_22_2">
<rect width="16" height="16" fill="white"/>
</clipPath>
</defs>
</svg>
